<svg xmlns="http://www.w3.org/2000/svg" width="20px" height="20px" viewBox="0 0 20 20" style="enable-background:new 0 0 20 20" xml:space="preserve"><path d="M2.6 13.9c.1 1 .5 1.9 1 2.7 1.6-1.6 1.4-1.4 3 .1C8.3 15 8 15 9.7 16.7c1.7-1.7 1.5-1.7 3.1 0 1.6-1.6 1.4-1.7 3-.1.5-.8.8-1.7 1-2.7H2.6zm.1-3.2c-.1.5-.1 1.1-.1 1.6h14.3c0-.6 0-1.1-.1-1.6H2.7zm11.7 6.6c-1.7 1.7-1.4 1.7-3.1 0-1.7 1.7-1.4 1.7-3.1 0C6.5 19 6.7 19 5 17.3l-.5.5c2.8 2.9 7.6 2.9 10.3 0l-.4-.5zM5 5.8c1.7-1.7 1.4-1.7 3.1 0 1.7-1.7 1.5-1.7 3.1 0 1.7-1.7 1.5-1.7 3.1 0l.9-.9C12.5-1.6 7-1.6 4.1 4.9l.9.9zm7.9-4.1c.3 0 .5.2.5.5s-.2.5-.5.5-.5-.3-.5-.5c-.1-.3.2-.5.5-.5zm-3.2 0c.3 0 .5.2.5.5s-.2.5-.5.5-.5-.3-.5-.5c0-.3.2-.5.5-.5zm-3.1 0c.3 0 .5.2.5.5s-.3.5-.5.5c-.3 0-.5-.3-.5-.5 0-.3.2-.5.5-.5zm10 7.5c-.2-1-.4-1.9-.7-2.8-1.7 1.7-1.4 1.6-3.1-.1-1.7 1.7-1.4 1.7-3.1 0-1.7 1.8-1.4 1.8-3.1.1-1.7 1.6-1.4 1.7-3.1 0-.3.9-.5 1.9-.6 2.8h13.7z" style="fill-rule:evenodd;clip-rule:evenodd;fill:#646970"/></svg>