<?xml version="1.0" encoding="utf-8"?>
<!-- Generator: Adobe Illustrator 26.1.0, SVG Export Plug-In . SVG Version: 6.00 Build 0)  -->
<svg version="1.1" id="Lager_1" xmlns="http://www.w3.org/2000/svg" xmlns:xlink="http://www.w3.org/1999/xlink" x="0px" y="0px"
	 viewBox="0 0 20 20" style="enable-background:new 0 0 20 20;" xml:space="preserve">
<style type="text/css">
	.st0{fill-rule:evenodd;clip-rule:evenodd;fill:#F0F6FC;fill-opacity:0.6;}
</style>
<path class="st0" d="M2.6,13.9c0.1,1,0.5,1.9,1,2.7c1.6-1.6,1.4-1.4,3,0.1C8.3,15,8,15,9.7,16.7c1.7-1.7,1.5-1.7,3.1,0c1.6-1.6,1.4-1.7,3-0.1
	c0.5-0.8,0.8-1.7,1-2.7H2.6z M2.7,10.7c-0.1,0.5-0.1,1.1-0.1,1.6h14.3c0-0.6,0-1.1-0.1-1.6H2.7z M14.4,17.3c-1.7,1.7-1.4,1.7-3.1,0
	c-1.7,1.7-1.4,1.7-3.1,0C6.5,19,6.7,19,5,17.3l-0.5,0.5c2.8,2.9,7.6,2.9,10.3,0L14.4,17.3L14.4,17.3z M5,5.8c1.7-1.7,1.4-1.7,3.1,0
	c1.7-1.7,1.5-1.7,3.1,0c1.7-1.7,1.5-1.7,3.1,0l0.9-0.9C12.5-1.6,7-1.6,4.1,4.9L5,5.8z M12.9,1.7c0.3,0,0.5,0.2,0.5,0.5
	c0,0.3-0.2,0.5-0.5,0.5c-0.3,0-0.5-0.3-0.5-0.5C12.3,1.9,12.6,1.7,12.9,1.7z M9.7,1.7c0.3,0,0.5,0.2,0.5,0.5c0,0.3-0.2,0.5-0.5,0.5
	c-0.3,0-0.5-0.3-0.5-0.5C9.2,1.9,9.4,1.7,9.7,1.7z M6.6,1.7c0.3,0,0.5,0.2,0.5,0.5c0,0.3-0.3,0.5-0.5,0.5c-0.3,0-0.5-0.3-0.5-0.5
	C6.1,1.9,6.3,1.7,6.6,1.7z M16.6,9.2c-0.2-1-0.4-1.9-0.7-2.8c-1.7,1.7-1.4,1.6-3.1-0.1c-1.7,1.7-1.4,1.7-3.1,0
	C8,8.1,8.3,8.1,6.6,6.4C4.9,8,5.2,8.1,3.5,6.4C3.2,7.3,3,8.3,2.9,9.2H16.6L16.6,9.2z"/>
</svg>
