<svg width="752pt" height="752pt" version="1.1" viewBox="0 0 752 752" xmlns="http://www.w3.org/2000/svg">
 <path d="m353.96 271.47c25.598-14.223 52.621-29.867 81.062-38.398 31.289-7.1094 59.73-4.2656 88.176 7.1094 48.355 18.488 55.465 86.754 54.043 132.26-2.8438 49.777 29.867 69.688-2.8438 116.62-29.867 44.086-98.129 41.242-145.06 15.645-27.02-14.223-54.043 18.488-83.906 11.379-19.91-2.8438-54.043-28.441-62.574-31.289-22.754-11.379-65.418-7.1094-86.754-25.598-15.645-14.223-22.754-34.133-27.02-52.621-9.957-38.398-9.957-81.062 21.332-109.51 12.801-9.957 27.02-17.066 44.086-21.332 36.977-8.5312 76.797 19.91 119.46-4.2656zm-116.62 35.555c8.5312-2.8438 14.223 11.379 5.6875 14.223-31.289 9.957-35.555 35.555-39.82 63.996-9.957-34.133-2.8438-65.418 34.133-78.219zm196.26 0c41.242 0 75.375 28.441 75.375 63.996 0 35.555-34.133 65.418-75.375 65.418-41.242 0-75.375-29.867-75.375-65.418 0-35.555 34.133-63.996 75.375-63.996zm-39.82 29.867c8.5312-7.1094 19.91 4.2656 14.223 11.379-14.223 14.223-18.488 31.289-9.957 56.887 2.8438 8.5312-42.664-27.02-4.2656-68.266zm-34.133-54.043c51.199-29.867 95.285-55.465 159.28-31.289 44.086 17.066 48.355 81.062 45.508 122.3-2.8438 42.664 25.598 59.73 4.2656 102.39-18.488 38.398-82.484 49.777-139.37 15.645-21.332-12.801-54.043 18.488-83.906 11.379-29.867-8.5312-44.086-27.02-58.309-31.289-52.621-18.488-85.328 7.1094-105.24-68.266-18.488-69.688 11.379-105.24 55.465-115.2 34.133-7.1094 75.375 21.332 122.3-5.6875z" fill="#fff" fill-rule="evenodd"/>
</svg>
