<?xml version="1.0" encoding="utf-8"?>
<!-- Generator: Adobe Illustrator 26.1.0, SVG Export Plug-In . SVG Version: 6.00 Build 0)  -->
<svg version="1.1" id="Lager_1" xmlns="http://www.w3.org/2000/svg" xmlns:xlink="http://www.w3.org/1999/xlink" x="0px" y="0px"
	 viewBox="0 0 435 435" style="enable-background:new 0 0 435 435;" xml:space="preserve">
<style type="text/css">
	.st0{fill-rule:evenodd;clip-rule:evenodd;fill:#D12A2A;}
</style>
<path class="st0" d="M195,112.5c25.6-14.2,52.6-29.9,81.1-38.4c31.3-7.1,59.7-4.3,88.2,7.1c48.4,18.5,55.5,86.8,54,132.3
	c-2.8,49.8,29.9,69.7-2.8,116.6c-29.9,44.1-98.1,41.2-145.1,15.6c-27-14.2-54,18.5-83.9,11.4c-19.9-2.8-54-28.4-62.6-31.3
	c-22.8-11.4-65.4-7.1-86.8-25.6c-15.6-14.2-22.8-34.1-27-52.6c-10-38.4-10-81.1,21.3-109.5c12.8-10,27-17.1,44.1-21.3
	C112.5,108.2,152.3,136.6,195,112.5L195,112.5z M78.3,148c8.5-2.8,14.2,11.4,5.7,14.2c-31.3,10-35.6,35.6-39.8,64
	C34.3,192.1,41.4,160.8,78.3,148L78.3,148z M274.6,148c41.2,0,75.4,28.4,75.4,64s-34.1,65.4-75.4,65.4s-75.4-29.9-75.4-65.4
	C199.2,176.5,233.4,148,274.6,148z M234.8,177.9c8.5-7.1,19.9,4.3,14.2,11.4c-14.2,14.2-18.5,31.3-10,56.9
	C241.9,254.7,196.4,219.1,234.8,177.9L234.8,177.9z M200.6,123.8c51.2-29.9,95.3-55.5,159.3-31.3c44.1,17.1,48.4,81.1,45.5,122.3
	c-2.8,42.7,25.6,59.7,4.3,102.4c-18.5,38.4-82.5,49.8-139.4,15.6c-21.3-12.8-54,18.5-83.9,11.4c-29.9-8.5-44.1-27-58.3-31.3
	c-52.6-18.5-85.3,7.1-105.2-68.3C4.4,175,34.3,139.5,78.3,129.5C112.5,122.4,153.7,150.9,200.6,123.8L200.6,123.8z"/>
</svg>
