<svg xmlns="http://www.w3.org/2000/svg" viewBox="0 0 20 20" style="enable-background:new 0 0 20 20" xml:space="preserve"><path d="M9 5.1c1.2-.7 2.5-1.4 3.8-1.8 1.5-.3 2.8-.2 4.1.3 2.3.9 2.6 4.1 2.5 6.2-.1 2.3 1.4 3.3-.1 5.5-1.4 2.1-4.6 1.9-6.8.7-1.3-.7-2.5.9-3.9.5-.9-.1-2.5-1.3-2.9-1.5-1.1-.5-3.1-.3-4.1-1.2-.7-.7-1.1-1.6-1.3-2.5-.5-1.8-.5-3.8 1-5.1.6-.5 1.3-.8 2.1-1 1.7-.3 3.6 1 5.6-.1zM3.5 6.7c.4-.1.7.5.3.7-1.5.5-1.7 1.7-1.9 3-.5-1.6-.2-3 1.6-3.7zm9.2 0c1.9 0 3.5 1.3 3.5 3s-1.6 3.1-3.5 3.1-3.5-1.4-3.5-3.1c0-1.6 1.6-3 3.5-3zm-1.9 1.5c.4-.3.9.2.7.5-.7.7-.9 1.5-.5 2.7.2.4-2-1.3-.2-3.2zM9.2 5.6c2.4-1.4 4.5-2.6 7.5-1.5 2.1.8 2.3 3.9 2.1 5.8-.1 2 1.2 2.8.2 4.8-.9 1.8-3.9 2.3-6.5.7-1-.6-2.5.9-3.9.5s-2.1-1.3-2.7-1.5c-2.5-.9-4 .3-4.9-3.2-1-3.2.4-4.9 2.5-5.3 1.6-.4 3.5 1 5.7-.3z" style="fill-rule:evenodd;clip-rule:evenodd;fill:#fff"/></svg>