<svg width="20" height="20" version="1.1" viewBox="0 0 20 20" xmlns="http://www.w3.org/2000/svg">
 <g fill-rule="evenodd">
  <path d="m234.26 453.44c2.7969 19.57 9.5039 38.02 19.57 54.234 31.871-31.871 27.957-28.516 59.828 2.7969 33.547-33.547 28.516-33.547 62.062 0 34.105-33.547 29.074-33.547 62.621 0 31.871-31.312 27.957-34.664 59.828-2.7969 9.5039-16.215 16.773-34.664 19.57-54.234z"/>
  <path d="m234.82 390.82c-1.1172 10.625-1.6758 21.246-1.6758 32.43h285.71c0-11.184-0.55859-21.805-1.6758-32.43z"/>
  <path d="m469.66 522.21c-33.547 34.105-28.516 34.105-62.621 0-33.547 34.105-28.516 34.105-62.621 0-33.547 34.105-28.516 34.105-62.062 0l-10.062 10.062c56.473 58.148 150.96 58.148 206.88 0l-9.5039-10.062z"/>
  <path d="m282.35 291.85c33.547-33.547 28.516-33.547 62.062 0 34.105-33.547 29.074-33.547 62.621 0 34.105-33.547 29.074-33.547 62.621 0l18.453-18.453c-57.031-129.72-167.74-129.72-224.77 0zm156-82.75c6.1523 0 10.625 4.4727 10.625 10.625 0 5.5898-4.4727 10.625-10.625 10.625-5.5898 0-10.625-5.0312-10.625-10.625 0-6.1523 5.0312-10.625 10.625-10.625zm-62.621 0c6.1523 0 10.625 4.4727 10.625 10.625 0 5.5898-4.4727 10.625-10.625 10.625-5.5898 0-10.625-5.0312-10.625-10.625 0-6.1523 5.0312-10.625 10.625-10.625zm-62.062 0c5.5898 0 10.625 4.4727 10.625 10.625 0 5.5898-5.0312 10.625-10.625 10.625-6.1523 0-10.625-5.0312-10.625-10.625 0-6.1523 4.4727-10.625 10.625-10.625z"/>
  <path d="m513.27 360.62c-3.3555-19.57-7.8281-38.578-13.418-55.914-32.988 32.988-27.957 32.43-61.504-1.1172-33.547 33.547-28.516 33.547-62.621 0-33.547 33.547-28.516 33.547-62.062 0-33.547 32.988-28.516 34.105-62.062 1.1172-5.5898 17.332-10.062 36.344-12.859 55.914h274.53z"/>
 </g>
</svg>
